<svg xmlns="http://www.w3.org/2000/svg" viewBox="0 12.899999618530273 466.20001220703125 32.75" data-asc="0.898" width="466.20001220703125" height="32.75"><defs/><g><g fill="#0000ff"><g transform="translate(0, 0)"><path d="M30.20 45.65Q27.25 45.65 24.43 45.32Q21.60 45 18.95 44.35L21.75 36.10Q23.65 36.60 25.85 36.92Q28.05 37.25 30.00 37.25Q31.60 37.25 32.80 37.17Q34 37.10 35.10 36.95L35.50 34.45L31.35 34.05Q26.45 33.55 24.55 31.82Q22.65 30.10 22.65 27.10Q22.65 25.75 22.95 24.10Q23.75 19.85 25.28 17.40Q26.80 14.95 29.65 13.92Q32.50 12.90 37.20 12.90Q39.95 12.90 42.60 13.20Q45.25 13.50 47.70 14.15L45.10 22.15Q43.15 21.80 41.40 21.60Q39.65 21.40 37.50 21.40Q36.35 21.40 35.55 21.45Q34.75 21.50 33.60 21.65L33.20 24.10L36.55 24.45Q40.15 24.80 42.20 25.82Q44.25 26.85 45.10 28.37Q45.95 29.90 45.95 31.90Q45.95 32.50 45.88 33.13Q45.80 33.75 45.70 34.45Q45 38.50 43.45 40.80Q41.90 43.10 39.80 44.13Q37.70 45.15 35.23 45.40Q32.75 45.65 30.20 45.65M24.45 15.70L5.15 13.65L26.65 13.65Q26 14.05 25.48 14.57Q24.95 15.10 24.45 15.70M22.15 20.65L1.40 18.45L22.90 18.45L22.15 20.65M21.20 25.50L0 23.25L21.55 23.25Q21.50 23.40 21.48 23.55Q21.45 23.70 21.45 23.85Q21.40 24.20 21.33 24.60Q21.25 25.00 21.20 25.50M21.60 30.30L0.45 28.05L21.20 28.05Q21.25 28.70 21.33 29.22Q21.40 29.75 21.60 30.30M28.20 35.10L1.75 32.85L23.30 32.85Q24.95 34.45 28.20 35.10M18.85 39.85L0.90 37.65L19.60 37.65L18.85 39.85M17.25 44.70L0.05 42.50L18 42.50L17.25 44.70ZM57.80 44.90L68.90 18.45L81.30 18.45L83.25 44.90L74.50 44.90L74.30 40.85L68 40.85L66.45 44.90L57.80 44.90M66.35 20.60L45.95 18.45L67.25 18.45L66.35 20.60M64.35 25.45L43.90 23.25L65.25 23.25L64.35 25.45M70.65 33.70L74.30 33.70L74.30 26.10L73.60 26.10L70.65 33.70M62.30 30.25L41.85 28.05L63.25 28.05L62.30 30.25M60.30 35.05L39.80 32.85L61.20 32.85L60.30 35.05M58.25 39.85L37.75 37.65L59.20 37.65L58.25 39.85M56.20 44.70L35.70 42.50L57.15 42.50L56.20 44.70ZM96.30 44.90L100.90 18.45L107.70 18.45L112.90 28.30L113.20 28.30L114.90 18.45L123.25 18.45L118.60 44.90L111.80 44.90L106.65 35L106.45 35L104.70 44.90L96.30 44.90M98.90 20.70L77.70 18.45L99.25 18.45L98.90 20.70M98.05 25.50L76.85 23.25L98.45 23.25L98.05 25.50M97.20 30.30L76 28.05L97.60 28.05L97.20 30.30M96.35 35.10L75.15 32.85L96.75 32.85L96.35 35.10M95.50 39.90L74.30 37.65L95.90 37.65L95.50 39.90M94.65 44.75L73.45 42.50L95.05 42.50L94.65 44.75ZM134.15 44.90L145.25 18.45L157.65 18.45L159.60 44.90L150.85 44.90L150.65 40.85L144.35 40.85L142.80 44.90L134.15 44.90M142.70 20.60L122.30 18.45L143.60 18.45L142.70 20.60M140.70 25.45L120.25 23.25L141.60 23.25L140.70 25.45M147 33.70L150.65 33.70L150.65 26.10L149.95 26.10L147 33.70M138.65 30.25L118.20 28.05L139.60 28.05L138.65 30.25M136.65 35.05L116.15 32.85L137.55 32.85L136.65 35.05M134.60 39.85L114.10 37.65L135.55 37.65L134.60 39.85M132.55 44.70L112.05 42.50L133.50 42.50L132.55 44.70ZM182.55 44.90L189.85 13.65L202.25 13.65L203.15 29.55L203.50 29.55L210 13.65L222.40 13.65L218.70 44.90L208.75 44.90L210.85 29.75L210.50 29.75L204.25 44.90L197 44.90L195.95 29.75L195.70 29.75L192.45 44.90L182.55 44.90M187.80 15.90L166.85 13.65L188.30 13.65L187.80 15.90M186.65 20.70L165.70 18.45L187.20 18.45L186.65 20.70M185.55 25.50L164.55 23.25L186.05 23.25L185.55 25.50M184.40 30.30L163.40 28.05L184.95 28.05L184.40 30.30M183.30 35.10L162.25 32.85L183.80 32.85L183.30 35.10M182.15 39.90L161.10 37.65L182.70 37.65L182.15 39.90M181.05 44.75L159.95 42.50L181.55 42.50L181.05 44.75ZM233.20 44.90L244.30 18.45L256.70 18.45L258.65 44.90L249.90 44.90L249.70 40.85L243.40 40.85L241.85 44.90L233.20 44.90M241.75 20.60L221.35 18.45L242.65 18.45L241.75 20.60M239.75 25.45L219.30 23.25L240.65 23.25L239.75 25.45M246.05 33.70L249.70 33.70L249.70 26.10L249 26.10L246.05 33.70M237.70 30.25L217.25 28.05L238.65 28.05L237.70 30.25M235.70 35.05L215.20 32.85L236.60 32.85L235.70 35.05M233.65 39.85L213.15 37.65L234.60 37.65L233.65 39.85M231.60 44.70L211.10 42.50L232.55 42.50L231.60 44.70ZM275.35 44.90L278.65 25.95L273.10 25.95L274.45 18.45L294.20 18.45L292.85 25.95L287.45 25.95L284.15 44.90L275.35 44.90M272.45 20.70L251.25 18.45L272.80 18.45L272.45 20.70M271.60 25.50L250.40 23.25L272 23.25L271.60 25.50M276.40 30.30L255.20 28.05L276.80 28.05L276.40 30.30M275.55 35.10L254.35 32.85L275.95 32.85L275.55 35.10M274.70 39.90L253.50 37.65L275.10 37.65L274.70 39.90M273.85 44.75L252.65 42.50L274.25 42.50L273.85 44.75ZM313.45 45.50Q308.30 45.50 306.25 43.98Q304.20 42.45 304.20 38.65Q304.20 37.50 304.35 36.20Q304.50 34.90 304.75 33.35L307.40 18.45L315.80 18.45L312.40 37.90L314.90 37.90Q316.15 37.90 316.72 37.60Q317.30 37.30 317.50 36L320.65 18.45L329.05 18.45L326.45 33.35Q325.65 37.90 324.30 40.57Q322.95 43.25 320.40 44.38Q317.85 45.50 313.45 45.50M305.45 20.70L284.25 18.45L305.80 18.45L305.45 20.70M304.60 25.50L283.40 23.25L305 23.25L304.60 25.50M303.75 30.30L282.55 28.05L304.15 28.05L303.75 30.30M302.90 35.10L281.70 32.85L303.30 32.85L302.90 35.10M302.75 39.90L281.55 37.65L302.70 37.65L302.70 38.65Q302.70 39 302.70 39.30Q302.70 39.60 302.75 39.90M304.65 44.75L283.45 42.50L303.20 42.50Q303.75 43.90 304.65 44.75ZM349.25 45.50Q346.90 45.50 344.48 45.25Q342.05 45 339.70 44.35L342.15 36.95Q346.05 38.05 349.65 38.05Q350.55 38.05 351.38 38.02Q352.20 38 353.10 37.90L353.35 36.30L350.20 35.95Q346.05 35.50 344.40 34Q342.75 32.50 342.75 29.90Q342.75 29.35 342.82 28.70Q342.90 28.05 343 27.40Q343.65 23.80 344.98 21.75Q346.30 19.70 348.73 18.82Q351.15 17.95 355.10 17.95Q359.85 17.95 364.05 19.00L361.65 26.30Q359.90 25.90 358.45 25.70Q357 25.50 355.30 25.50Q354.35 25.50 353.75 25.52Q353.15 25.55 352.30 25.65L352.05 27.10L354.55 27.40Q358.95 27.90 360.77 29.65Q362.60 31.40 362.60 34.05Q362.60 34.50 362.55 35Q362.50 35.50 362.40 36Q361.80 39.45 360.50 41.40Q359.20 43.35 357.40 44.23Q355.60 45.10 353.50 45.30Q351.40 45.50 349.25 45.50M343.90 20.55L324.40 18.45L345.95 18.45Q345.35 18.90 344.82 19.40Q344.30 19.90 343.90 20.55M341.85 25.50L320.95 23.25L342.50 23.25Q342.30 23.75 342.15 24.32Q342 24.90 341.85 25.50M341.25 30.30L320.05 28.05L341.35 28.05Q341.30 28.50 341.27 28.97Q341.25 29.45 341.25 29.90L341.25 30.30M343.15 35.10L322 32.85L341.70 32.85Q342.15 34.15 343.15 35.10M339.60 39.85L318.75 37.65L340.30 37.65L339.60 39.85M338 44.75L317.10 42.50L338.70 42.50L338 44.75ZM374.50 44.90L385.60 18.45L398 18.45L399.95 44.90L391.20 44.90L391 40.85L384.70 40.85L383.15 44.90L374.50 44.90M383.05 20.60L362.65 18.45L383.95 18.45L383.05 20.60M381.05 25.45L360.60 23.25L381.95 23.25L381.05 25.45M387.35 33.70L391 33.70L391 26.10L390.30 26.10L387.35 33.70M379 30.25L358.55 28.05L379.95 28.05L379 30.25M377 35.05L356.50 32.85L377.90 32.85L377 35.05M374.95 39.85L354.45 37.65L375.90 37.65L374.95 39.85M372.90 44.70L352.40 42.50L373.85 42.50L372.90 44.70ZM413.00 44.90L417.60 18.45L426.40 18.45L423.05 37.55L430.55 37.55L429.25 44.90L413.00 44.90M415.60 20.70L394.40 18.45L415.95 18.45L415.60 20.70M414.75 25.50L393.55 23.25L415.15 23.25L414.75 25.50M413.90 30.30L392.70 28.05L414.30 28.05L413.90 30.30M413.05 35.10L391.85 32.85L413.45 32.85L413.05 35.10M412.20 39.90L391.00 37.65L412.60 37.65L412.20 39.90M411.35 44.75L390.15 42.50L411.75 42.50L411.35 44.75ZM440.75 44.90L451.85 18.45L464.25 18.45L466.20 44.90L457.45 44.90L457.25 40.85L450.95 40.85L449.40 44.90L440.75 44.90M449.30 20.60L428.90 18.45L450.20 18.45L449.30 20.60M447.30 25.45L426.85 23.25L448.20 23.25L447.30 25.45M453.60 33.70L457.25 33.70L457.25 26.10L456.55 26.10L453.60 33.70M445.25 30.25L424.80 28.05L446.20 28.05L445.25 30.25M443.25 35.05L422.75 32.85L444.15 32.85L443.25 35.05M441.20 39.85L420.70 37.65L442.15 37.65L441.20 39.85M439.15 44.70L418.65 42.50L440.10 42.50L439.15 44.70Z"/></g></g></g></svg>