<svg xmlns="http://www.w3.org/2000/svg" viewBox="0 8.859999656677246 329.1700134277344 37.0099983215332" data-asc="0.9052734375" width="329.1700134277344" height="37.0099983215332"><defs/><g><g fill="#000000"><g transform="translate(0, 0)"><path d="M0 33.76L4.47 33.37Q4.79 36.06 5.94 37.78Q7.10 39.50 9.55 40.56Q11.99 41.63 15.04 41.63Q17.75 41.63 19.82 40.82Q21.90 40.01 22.91 38.61Q23.93 37.21 23.93 35.55Q23.93 33.86 22.95 32.60Q21.97 31.35 19.73 30.49Q18.29 29.93 13.35 28.75Q8.42 27.56 6.45 26.51Q3.88 25.17 2.62 23.18Q1.37 21.19 1.37 18.73Q1.37 16.02 2.91 13.66Q4.44 11.30 7.40 10.08Q10.35 8.86 13.96 8.86Q17.94 8.86 20.98 10.14Q24.02 11.43 25.66 13.92Q27.29 16.41 27.42 19.56L22.88 19.90Q22.51 16.50 20.40 14.77Q18.29 13.04 14.16 13.04Q9.86 13.04 7.90 14.61Q5.93 16.19 5.93 18.41Q5.93 20.34 7.32 21.58Q8.69 22.83 14.47 24.13Q20.24 25.44 22.39 26.42Q25.51 27.86 27.00 30.07Q28.49 32.28 28.49 35.16Q28.49 38.01 26.86 40.54Q25.22 43.07 22.16 44.47Q19.09 45.87 15.26 45.87Q10.40 45.87 7.12 44.46Q3.83 43.04 1.97 40.20Q0.10 37.35 0 33.76ZM51.32 42.07Q48.88 44.14 46.62 45.00Q44.36 45.85 41.77 45.85Q37.50 45.85 35.21 43.76Q32.91 41.67 32.91 38.43Q32.91 36.52 33.78 34.95Q34.64 33.37 36.05 32.42Q37.45 31.47 39.21 30.98Q40.50 30.64 43.12 30.32Q48.44 29.69 50.95 28.81Q50.98 27.91 50.98 27.66Q50.98 24.98 49.73 23.88Q48.05 22.39 44.73 22.39Q41.63 22.39 40.15 23.47Q38.67 24.56 37.96 27.32L33.67 26.73Q34.25 23.97 35.60 22.28Q36.94 20.58 39.48 19.67Q42.02 18.75 45.36 18.75Q48.68 18.75 50.76 19.53Q52.83 20.31 53.81 21.50Q54.79 22.68 55.18 24.49Q55.40 25.61 55.40 28.54L55.40 34.40Q55.40 40.53 55.68 42.15Q55.96 43.77 56.79 45.26L52.20 45.26Q51.51 43.90 51.32 42.07M50.95 32.25Q48.56 33.23 43.77 33.91Q41.06 34.30 39.94 34.79Q38.82 35.28 38.21 36.22Q37.60 37.16 37.60 38.31Q37.60 40.06 38.93 41.24Q40.26 42.41 42.82 42.41Q45.36 42.41 47.34 41.30Q49.32 40.19 50.24 38.26Q50.95 36.77 50.95 33.86L50.95 32.25ZM62.21 45.26L62.21 19.34L66.16 19.34L66.16 23.02Q69.02 18.75 74.41 18.75Q76.76 18.75 78.72 19.59Q80.69 20.43 81.67 21.80Q82.64 23.17 83.03 25.05Q83.28 26.27 83.28 29.32L83.28 45.26L78.88 45.26L78.88 29.49Q78.88 26.81 78.37 25.48Q77.86 24.15 76.55 23.35Q75.24 22.56 73.49 22.56Q70.68 22.56 68.64 24.34Q66.60 26.12 66.60 31.10L66.60 45.26L62.21 45.26ZM106.93 42.07Q104.49 44.14 102.23 45.00Q99.98 45.85 97.39 45.85Q93.12 45.85 90.82 43.76Q88.53 41.67 88.53 38.43Q88.53 36.52 89.39 34.95Q90.26 33.37 91.66 32.42Q93.07 31.47 94.82 30.98Q96.12 30.64 98.73 30.32Q104.05 29.69 106.57 28.81Q106.59 27.91 106.59 27.66Q106.59 24.98 105.35 23.88Q103.66 22.39 100.34 22.39Q97.24 22.39 95.76 23.47Q94.29 24.56 93.58 27.32L89.28 26.73Q89.87 23.97 91.21 22.28Q92.55 20.58 95.09 19.67Q97.63 18.75 100.98 18.75Q104.30 18.75 106.37 19.53Q108.45 20.31 109.42 21.50Q110.40 22.68 110.79 24.49Q111.01 25.61 111.01 28.54L111.01 34.40Q111.01 40.53 111.29 42.15Q111.57 43.77 112.40 45.26L107.81 45.26Q107.13 43.90 106.93 42.07M106.57 32.25Q104.17 33.23 99.39 33.91Q96.68 34.30 95.56 34.79Q94.43 35.28 93.82 36.22Q93.21 37.16 93.21 38.31Q93.21 40.06 94.54 41.24Q95.87 42.41 98.44 42.41Q100.98 42.41 102.95 41.30Q104.93 40.19 105.86 38.26Q106.57 36.77 106.57 33.86L106.57 32.25ZM132.13 45.26L132.13 9.47L139.26 9.47L147.73 34.81Q148.90 38.35 149.44 40.11Q150.05 38.16 151.34 34.38L159.91 9.47L166.28 9.47L166.28 45.26L161.72 45.26L161.72 15.31L151.32 45.26L147.05 45.26L136.69 14.79L136.69 45.26L132.13 45.26ZM190.28 42.07Q187.84 44.14 185.58 45.00Q183.33 45.85 180.74 45.85Q176.46 45.85 174.17 43.76Q171.88 41.67 171.88 38.43Q171.88 36.52 172.74 34.95Q173.61 33.37 175.01 32.42Q176.42 31.47 178.17 30.98Q179.47 30.64 182.08 30.32Q187.40 29.69 189.92 28.81Q189.94 27.91 189.94 27.66Q189.94 24.98 188.70 23.88Q187.01 22.39 183.69 22.39Q180.59 22.39 179.11 23.47Q177.64 24.56 176.93 27.32L172.63 26.73Q173.22 23.97 174.56 22.28Q175.90 20.58 178.44 19.67Q180.98 18.75 184.33 18.75Q187.65 18.75 189.72 19.53Q191.80 20.31 192.77 21.50Q193.75 22.68 194.14 24.49Q194.36 25.61 194.36 28.54L194.36 34.40Q194.36 40.53 194.64 42.15Q194.92 43.77 195.75 45.26L191.16 45.26Q190.48 43.90 190.28 42.07M189.92 32.25Q187.52 33.23 182.74 33.91Q180.03 34.30 178.91 34.79Q177.78 35.28 177.17 36.22Q176.56 37.16 176.56 38.31Q176.56 40.06 177.89 41.24Q179.22 42.41 181.79 42.41Q184.33 42.41 186.30 41.30Q188.28 40.19 189.21 38.26Q189.92 36.77 189.92 33.86L189.92 32.25ZM210.77 41.33L211.40 45.21Q209.55 45.61 208.08 45.61Q205.69 45.61 204.37 44.85Q203.05 44.09 202.51 42.86Q201.98 41.63 201.98 37.67L201.98 22.75L198.75 22.75L198.75 19.34L201.98 19.34L201.98 12.92L206.35 10.28L206.35 19.34L210.77 19.34L210.77 22.75L206.35 22.75L206.35 37.92Q206.35 39.79 206.58 40.33Q206.81 40.87 207.34 41.19Q207.86 41.50 208.84 41.50Q209.57 41.50 210.77 41.33ZM232.06 45.26L232.06 41.46Q229.03 45.85 223.83 45.85Q221.53 45.85 219.54 44.97Q217.55 44.09 216.59 42.76Q215.63 41.43 215.23 39.50Q214.97 38.21 214.97 35.40L214.97 19.34L219.36 19.34L219.36 33.72Q219.36 37.16 219.63 38.35Q220.04 40.09 221.39 41.08Q222.73 42.07 224.71 42.07Q226.68 42.07 228.42 41.05Q230.15 40.04 230.87 38.29Q231.59 36.55 231.59 33.23L231.59 19.34L235.99 19.34L235.99 45.26L232.06 45.26ZM241.11 37.52L245.46 36.84Q245.83 39.45 247.50 40.84Q249.17 42.24 252.17 42.24Q255.20 42.24 256.67 41.00Q258.13 39.77 258.13 38.11Q258.13 36.62 256.84 35.77Q255.93 35.18 252.34 34.28Q247.51 33.06 245.64 32.17Q243.77 31.27 242.81 29.70Q241.85 28.13 241.85 26.22Q241.85 24.49 242.64 23.01Q243.43 21.53 244.80 20.56Q245.83 19.80 247.60 19.27Q249.37 18.75 251.39 18.75Q254.44 18.75 256.75 19.63Q259.06 20.51 260.16 22.01Q261.25 23.51 261.67 26.03L257.37 26.61Q257.08 24.61 255.68 23.49Q254.27 22.36 251.71 22.36Q248.68 22.36 247.39 23.36Q246.09 24.37 246.09 25.71Q246.09 26.56 246.63 27.25Q247.17 27.95 248.32 28.42Q248.97 28.66 252.20 29.54Q256.86 30.79 258.70 31.58Q260.55 32.37 261.60 33.89Q262.65 35.40 262.65 37.65Q262.65 39.84 261.36 41.78Q260.08 43.73 257.67 44.79Q255.25 45.85 252.20 45.85Q247.14 45.85 244.49 43.75Q241.85 41.65 241.11 37.52ZM284.79 42.07Q282.35 44.14 280.09 45.00Q277.83 45.85 275.24 45.85Q270.97 45.85 268.68 43.76Q266.38 41.67 266.38 38.43Q266.38 36.52 267.25 34.95Q268.12 33.37 269.52 32.42Q270.92 31.47 272.68 30.98Q273.97 30.64 276.59 30.32Q281.91 29.69 284.42 28.81Q284.45 27.91 284.45 27.66Q284.45 24.98 283.20 23.88Q281.52 22.39 278.20 22.39Q275.10 22.39 273.62 23.47Q272.14 24.56 271.44 27.32L267.14 26.73Q267.72 23.97 269.07 22.28Q270.41 20.58 272.95 19.67Q275.49 18.75 278.83 18.75Q282.15 18.75 284.23 19.53Q286.30 20.31 287.28 21.50Q288.26 22.68 288.65 24.49Q288.87 25.61 288.87 28.54L288.87 34.40Q288.87 40.53 289.15 42.15Q289.43 43.77 290.26 45.26L285.67 45.26Q284.99 43.90 284.79 42.07M284.42 32.25Q282.03 33.23 277.25 33.91Q274.54 34.30 273.41 34.79Q272.29 35.28 271.68 36.22Q271.07 37.16 271.07 38.31Q271.07 40.06 272.40 41.24Q273.73 42.41 276.29 42.41Q278.83 42.41 280.81 41.30Q282.79 40.19 283.72 38.26Q284.42 36.77 284.42 33.86L284.42 32.25ZM295.58 45.26L295.58 9.47L299.98 9.47L299.98 45.26L295.58 45.26ZM323.71 42.07Q321.26 44.14 319.01 45.00Q316.75 45.85 314.16 45.85Q309.89 45.85 307.59 43.76Q305.30 41.67 305.30 38.43Q305.30 36.52 306.16 34.95Q307.03 33.37 308.44 32.42Q309.84 31.47 311.60 30.98Q312.89 30.64 315.50 30.32Q320.83 29.69 323.34 28.81Q323.36 27.91 323.36 27.66Q323.36 24.98 322.12 23.88Q320.43 22.39 317.11 22.39Q314.01 22.39 312.54 23.47Q311.06 24.56 310.35 27.32L306.05 26.73Q306.64 23.97 307.98 22.28Q309.33 20.58 311.87 19.67Q314.40 18.75 317.75 18.75Q321.07 18.75 323.14 19.53Q325.22 20.31 326.20 21.50Q327.17 22.68 327.56 24.49Q327.78 25.61 327.78 28.54L327.78 34.40Q327.78 40.53 328.06 42.15Q328.34 43.77 329.17 45.26L324.58 45.26Q323.90 43.90 323.71 42.07M323.34 32.25Q320.95 33.23 316.16 33.91Q313.45 34.30 312.33 34.79Q311.21 35.28 310.60 36.22Q309.99 37.16 309.99 38.31Q309.99 40.06 311.32 41.24Q312.65 42.41 315.21 42.41Q317.75 42.41 319.73 41.30Q321.70 40.19 322.63 38.26Q323.34 36.77 323.34 33.86L323.34 32.25Z"/></g></g></g></svg>